<svg xmlns="http://www.w3.org/2000/svg" xmlns:xlink="http://www.w3.org/1999/xlink" version="1.1" width="256" height="256" viewBox="0 0 256 256" xml:space="preserve">

<defs>
</defs>
<g style="stroke: none; stroke-width: 0; stroke-dasharray: none; stroke-linecap: butt; stroke-linejoin: miter; stroke-miterlimit: 10; fill: none; fill-rule: nonzero; opacity: 1;" transform="translate(1.4065934065934016 1.4065934065934016) scale(2.81 2.81)" >
	<path d="M 43.098 26.422 c -7.539 0 -10.796 5.378 -10.796 15.85 c 0 10.417 3.257 15.739 10.796 15.739 c 1.198 0 2.284 -0.132 3.281 -0.423 c -1.56 -3.069 -3.388 -6.169 -6.956 -6.169 c -0.682 0 -1.363 0.113 -1.988 0.398 l -1.212 -2.426 c 1.478 -1.268 3.864 -2.272 6.932 -2.272 c 4.772 0 7.222 2.299 9.166 5.234 c 1.154 -2.506 1.703 -5.889 1.703 -10.082 C 54.024 31.8 50.749 26.422 43.098 26.422 z" style="stroke: none; stroke-width: 1; stroke-dasharray: none; stroke-linecap: butt; stroke-linejoin: miter; stroke-miterlimit: 10; fill: rgb(0,0,0); fill-rule: nonzero; opacity: 1;" transform=" matrix(1 0 0 1 0 0) " stroke-linecap="round" />
	<path d="M 88.695 40.131 L 71.064 9.593 c -1.739 -3.013 -4.954 -4.869 -8.433 -4.869 H 27.369 c -3.479 0 -6.693 1.856 -8.433 4.869 L 1.305 40.131 c -1.739 3.013 -1.739 6.725 0 9.737 l 17.631 30.538 c 1.739 3.013 4.954 4.869 8.433 4.869 h 35.263 c 3.479 0 6.693 -1.856 8.433 -4.869 l 17.631 -30.538 C 90.435 46.856 90.435 43.144 88.695 40.131 z M 57.812 67.5 c -4.968 0 -7.594 -2.879 -9.564 -6.256 c -1.652 0.443 -3.408 0.688 -5.15 0.688 c -10.039 0 -19.868 -8.01 -19.868 -19.659 c 0 -11.76 9.829 -19.772 19.867 -19.772 c 10.207 0 19.942 7.954 19.942 19.772 c 0 6.573 -3.067 11.915 -7.525 15.367 c 1.44 2.158 2.923 3.591 4.988 3.591 c 2.254 0 3.163 -1.741 3.315 -3.107 h 2.935 C 66.924 59.942 66.013 67.5 57.812 67.5 z" style="stroke: none; stroke-width: 1; stroke-dasharray: none; stroke-linecap: butt; stroke-linejoin: miter; stroke-miterlimit: 10; fill: rgb(0,0,0); fill-rule: nonzero; opacity: 1;" transform=" matrix(1 0 0 1 0 0) " stroke-linecap="round" />
</g>
</svg>