<svg xmlns="http://www.w3.org/2000/svg" xmlns:xlink="http://www.w3.org/1999/xlink" version="1.1" width="256" height="256" viewBox="0 0 256 256" xml:space="preserve">

<defs>
</defs>
<g style="stroke: none; stroke-width: 0; stroke-dasharray: none; stroke-linecap: butt; stroke-linejoin: miter; stroke-miterlimit: 10; fill: none; fill-rule: nonzero; opacity: 1;" transform="translate(1.4065934065934016 1.4065934065934016) scale(2.81 2.81)" >
	<path d="M 88.695 40.131 L 71.064 9.593 c -1.739 -3.013 -4.954 -4.869 -8.433 -4.869 H 27.369 c -3.479 0 -6.693 1.856 -8.433 4.869 L 1.305 40.131 c -1.739 3.013 -1.739 6.725 0 9.737 l 17.631 30.538 c 1.739 3.013 4.954 4.869 8.433 4.869 h 35.263 c 3.479 0 6.693 -1.856 8.433 -4.869 l 17.631 -30.538 C 90.435 46.856 90.435 43.144 88.695 40.131 z M 46.5 26.963 c -0.002 -2.487 2.013 -4.506 4.501 -4.508 c 2.488 0.004 4.501 2.022 4.499 4.508 v 12.024 c 0.002 2.489 -2.013 4.508 -4.501 4.51 c -2.488 -0.004 -4.503 -2.022 -4.499 -4.51 V 26.963 z M 31.501 51.011 c 0.002 2.488 -2.013 4.506 -4.501 4.508 c -2.488 -0.002 -4.503 -2.021 -4.501 -4.508 c -0.002 -2.487 2.013 -4.506 4.501 -4.508 h 4.501 V 51.011 z M 43.5 63.037 c 0.002 2.488 -2.013 4.506 -4.501 4.508 c -2.488 -0.004 -4.503 -2.022 -4.499 -4.51 V 51.011 c -0.002 -2.487 2.011 -4.506 4.501 -4.506 c 2.488 0.004 4.503 2.022 4.499 4.51 V 63.037 z M 38.999 43.497 h -12 c -2.488 -0.004 -4.503 -2.022 -4.499 -4.51 c -0.002 -2.488 2.013 -4.506 4.501 -4.508 h 11.998 c 2.488 0.002 4.503 2.021 4.501 4.51 C 43.502 41.476 41.487 43.495 38.999 43.497 z M 43.502 31.471 h -4.501 c -2.488 -0.002 -4.503 -2.021 -4.501 -4.508 c -0.002 -2.487 2.011 -4.506 4.499 -4.508 c 2.489 0.004 4.504 2.022 4.503 4.51 V 31.471 z M 50.999 67.545 c -2.488 -0.004 -4.503 -2.022 -4.501 -4.508 v -4.508 h 4.501 c 2.488 0.002 4.503 2.021 4.501 4.508 C 55.502 65.524 53.487 67.543 50.999 67.545 z M 62.999 55.519 h -12 c -2.488 -0.002 -4.501 -2.021 -4.499 -4.51 c -0.002 -2.487 2.013 -4.506 4.501 -4.508 h 12 c 2.488 0.004 4.503 2.022 4.499 4.51 C 67.502 53.499 65.487 55.517 62.999 55.519 z M 62.999 43.497 h -4.501 v -4.51 c -0.002 -2.488 2.013 -4.506 4.501 -4.508 c 2.488 0.002 4.503 2.021 4.501 4.508 C 67.502 41.476 65.487 43.495 62.999 43.497 z" style="stroke: none; stroke-width: 1; stroke-dasharray: none; stroke-linecap: butt; stroke-linejoin: miter; stroke-miterlimit: 10; fill: rgb(0,0,0); fill-rule: nonzero; opacity: 1;" transform=" matrix(1 0 0 1 0 0) " stroke-linecap="round" />
</g>
</svg>