<svg xmlns="http://www.w3.org/2000/svg" xmlns:xlink="http://www.w3.org/1999/xlink" version="1.1" width="256" height="256" viewBox="0 0 256 256" xml:space="preserve">

<defs>
</defs>
<g style="stroke: none; stroke-width: 0; stroke-dasharray: none; stroke-linecap: butt; stroke-linejoin: miter; stroke-miterlimit: 10; fill: none; fill-rule: nonzero; opacity: 1;" transform="translate(1.4065934065934016 1.4065934065934016) scale(2.81 2.81)" >
	<path d="M 88.695 40.131 L 71.064 9.593 c -1.739 -3.013 -4.954 -4.869 -8.433 -4.869 H 27.369 c -3.479 0 -6.693 1.856 -8.433 4.869 L 1.305 40.131 c -1.739 3.013 -1.739 6.725 0 9.737 l 17.631 30.538 c 1.739 3.013 4.954 4.869 8.433 4.869 h 35.263 c 3.479 0 6.693 -1.856 8.433 -4.869 l 17.631 -30.538 C 90.435 46.856 90.435 43.144 88.695 40.131 z M 67.478 34.544 c -0.201 4.38 -3.26 10.377 -9.178 17.99 c -6.118 7.95 -11.295 11.926 -15.528 11.926 c -2.624 0 -4.844 -2.42 -6.657 -7.263 c -1.211 -4.439 -2.42 -8.878 -3.632 -13.318 c -1.347 -4.84 -2.79 -7.263 -4.336 -7.263 c -0.337 0 -1.515 0.708 -3.532 2.119 L 22.5 36.008 c 2.221 -1.951 4.411 -3.901 6.567 -5.856 c 2.962 -2.558 5.187 -3.904 6.669 -4.04 c 3.501 -0.337 5.657 2.057 6.466 7.18 c 0.875 5.529 1.48 8.967 1.82 10.312 c 1.01 4.587 2.122 6.878 3.335 6.878 c 0.941 0 2.357 -1.487 4.243 -4.464 c 1.884 -2.975 2.893 -5.238 3.029 -6.794 c 0.269 -2.568 -0.741 -3.854 -3.029 -3.854 c -1.077 0 -2.188 0.248 -3.331 0.738 c 2.213 -7.243 6.438 -10.76 12.674 -10.56 C 65.565 25.685 67.745 28.683 67.478 34.544 z" style="stroke: none; stroke-width: 1; stroke-dasharray: none; stroke-linecap: butt; stroke-linejoin: miter; stroke-miterlimit: 10; fill: rgb(0,0,0); fill-rule: nonzero; opacity: 1;" transform=" matrix(1 0 0 1 0 0) " stroke-linecap="round" />
</g>
</svg>