<svg xmlns="http://www.w3.org/2000/svg" xmlns:xlink="http://www.w3.org/1999/xlink" version="1.1" width="256" height="256" viewBox="0 0 256 256" xml:space="preserve">

<defs>
</defs>
<g style="stroke: none; stroke-width: 0; stroke-dasharray: none; stroke-linecap: butt; stroke-linejoin: miter; stroke-miterlimit: 10; fill: none; fill-rule: nonzero; opacity: 1;" transform="translate(1.4065934065934016 1.4065934065934016) scale(2.81 2.81)" >
	<path d="M 55.405 35.719 c -1.5 -2.906 0.094 -5.719 3.001 -5.812 c -2.345 -2.25 -7.125 -5.062 -13.407 -5.156 c -6.281 -0.094 -12.937 3.094 -16.875 9.094 l 6.938 -0.187 c 0.844 0.375 0.468 1.593 0 1.688 l -2.437 0.187 l 7.312 21.937 l 4.408 -13.313 l -3.188 -8.719 l -2.344 -0.187 c -0.937 -0.657 -0.375 -1.688 0.281 -1.688 c 4.219 0.281 6.562 0.281 10.781 0 c 1.032 0 1.312 1.5 0.093 1.688 l -2.25 0.187 L 55.03 57 l 3.468 -11.812 C 58.686 40.032 57.279 39.469 55.405 35.719 z" style="stroke: none; stroke-width: 1; stroke-dasharray: none; stroke-linecap: butt; stroke-linejoin: miter; stroke-miterlimit: 10; fill: rgb(0,0,0); fill-rule: nonzero; opacity: 1;" transform=" matrix(1 0 0 1 0 0) " stroke-linecap="round" />
	<path d="M 24.751 45 c 0.094 7.687 4.406 14.718 11.344 18.094 l -9.562 -26.156 C 25.219 39.75 24.939 42.094 24.751 45 z" style="stroke: none; stroke-width: 1; stroke-dasharray: none; stroke-linecap: butt; stroke-linejoin: miter; stroke-miterlimit: 10; fill: rgb(0,0,0); fill-rule: nonzero; opacity: 1;" transform=" matrix(1 0 0 1 0 0) " stroke-linecap="round" />
	<path d="M 39.281 64.406 c 4.407 1.032 7.406 1.312 12.375 -0.375 v 0 l -6.375 -17.156 L 39.281 64.406 z" style="stroke: none; stroke-width: 1; stroke-dasharray: none; stroke-linecap: butt; stroke-linejoin: miter; stroke-miterlimit: 10; fill: rgb(0,0,0); fill-rule: nonzero; opacity: 1;" transform=" matrix(1 0 0 1 0 0) " stroke-linecap="round" />
	<path d="M 55.219 62.344 C 63.469 57.375 65.062 49.968 65.25 45 h -0.093 c 0.093 -4.968 -2.156 -8.906 -2.344 -9.468 c 0.188 3.844 -0.375 5.812 -1.031 7.969 L 55.219 62.344 z" style="stroke: none; stroke-width: 1; stroke-dasharray: none; stroke-linecap: butt; stroke-linejoin: miter; stroke-miterlimit: 10; fill: rgb(0,0,0); fill-rule: nonzero; opacity: 1;" transform=" matrix(1 0 0 1 0 0) " stroke-linecap="round" />
	<path d="M 88.695 40.131 L 71.064 9.593 c -1.739 -3.013 -4.954 -4.869 -8.433 -4.869 H 27.369 c -3.479 0 -6.693 1.856 -8.433 4.869 L 1.305 40.131 c -1.739 3.013 -1.739 6.725 0 9.737 l 17.631 30.538 c 1.739 3.013 4.954 4.869 8.433 4.869 h 35.263 c 3.479 0 6.693 -1.856 8.433 -4.869 l 17.631 -30.538 C 90.435 46.856 90.435 43.144 88.695 40.131 z M 45 67.5 c -12.469 0 -22.594 -9.938 -22.5 -22.5 c 0.094 -12.562 9.562 -22.5 22.5 -22.5 c 12.938 0 22.5 10.125 22.5 22.5 S 57.469 67.5 45 67.5 z" style="stroke: none; stroke-width: 1; stroke-dasharray: none; stroke-linecap: butt; stroke-linejoin: miter; stroke-miterlimit: 10; fill: rgb(0,0,0); fill-rule: nonzero; opacity: 1;" transform=" matrix(1 0 0 1 0 0) " stroke-linecap="round" />
</g>
</svg>